<svg width="24" height="24" viewBox="0 0 24 24" fill="none" xmlns="http://www.w3.org/2000/svg">
<path fill-rule="evenodd" clip-rule="evenodd" d="M6 2C6 1.44772 6.44772 1 7 1H17C17.5523 1 18 1.44772 18 2C18 2.55228 17.5523 3 17 3H7C6.44772 3 6 2.55228 6 2ZM4 6C4 5.44772 4.44772 5 5 5H19C19.5523 5 20 5.44772 20 6C20 6.55228 19.5523 7 19 7H5C4.44772 7 4 6.55228 4 6ZM4 12C4 11.4477 4.44772 11 5 11H19C19.5523 11 20 11.4477 20 12V20C20 20.5523 19.5523 21 19 21H5C4.44772 21 4 20.5523 4 20V12ZM5 9C3.34315 9 2 10.3431 2 12V20C2 21.6569 3.34315 23 5 23H19C20.6569 23 22 21.6569 22 20V12C22 10.3431 20.6569 9 19 9H5Z" fill="#2498DB"/>
</svg>
